<svg id="visual" viewBox="0 0 900 600" width="900" height="600" xmlns="http://www.w3.org/2000/svg" xmlns:xlink="http://www.w3.org/1999/xlink" version="1.1"><path d="M0 19L37.5 23C75 27 150 35 225 39C300 43 375 43 450 40C525 37 600 31 675 34C750 37 825 49 862.5 55L900 61L900 0L862.5 0C825 0 750 0 675 0C600 0 525 0 450 0C375 0 300 0 225 0C150 0 75 0 37.5 0L0 0Z" fill="#ebfcfd"></path><path d="M0 55L37.5 56C75 57 150 59 225 65C300 71 375 81 450 79C525 77 600 63 675 58C750 53 825 57 862.5 59L900 61L900 59L862.5 53C825 47 750 35 675 32C600 29 525 35 450 38C375 41 300 41 225 37C150 33 75 25 37.5 21L0 17Z" fill="#e6fcfd"></path><path d="M0 79L37.5 91C75 103 150 127 225 133C300 139 375 127 450 112C525 97 600 79 675 79C750 79 825 97 862.5 106L900 115L900 59L862.5 57C825 55 750 51 675 56C600 61 525 75 450 77C375 79 300 69 225 63C150 57 75 55 37.5 54L0 53Z" fill="#e0fbfc"></path><path d="M0 91L37.5 111C75 131 150 171 225 188C300 205 375 199 450 224C525 249 600 305 675 296C750 287 825 213 862.5 176L900 139L900 113L862.5 104C825 95 750 77 675 77C600 77 525 95 450 110C375 125 300 137 225 131C150 125 75 101 37.5 89L0 77Z" fill="#d3fafb"></path><path d="M0 301L37.5 323C75 345 150 389 225 381C300 373 375 313 450 305C525 297 600 341 675 342C750 343 825 301 862.5 280L900 259L900 137L862.5 174C825 211 750 285 675 294C600 303 525 247 450 222C375 197 300 203 225 186C150 169 75 129 37.5 109L0 89Z" fill="#c6f8f9"></path><path d="M0 331L37.5 350C75 369 150 407 225 404C300 401 375 357 450 356C525 355 600 397 675 393C750 389 825 339 862.5 314L900 289L900 257L862.5 278C825 299 750 341 675 340C600 339 525 295 450 303C375 311 300 371 225 379C150 387 75 343 37.5 321L0 299Z" fill="#c6f8f9"></path><path d="M0 397L37.5 407C75 417 150 437 225 428C300 419 375 381 450 380C525 379 600 415 675 414C750 413 825 375 862.5 356L900 337L900 287L862.5 312C825 337 750 387 675 391C600 395 525 353 450 354C375 355 300 399 225 402C150 405 75 367 37.5 348L0 329Z" fill="#c6f8f9"></path><path d="M0 487L37.5 489C75 491 150 495 225 483C300 471 375 443 450 441C525 439 600 463 675 459C750 455 825 423 862.5 407L900 391L900 335L862.5 354C825 373 750 411 675 412C600 413 525 377 450 378C375 379 300 417 225 426C150 435 75 415 37.5 405L0 395Z" fill="#d3fafb"></path><path d="M0 547L37.5 551C75 555 150 563 225 561C300 559 375 547 450 538C525 529 600 523 675 516C750 509 825 501 862.5 497L900 493L900 389L862.5 405C825 421 750 453 675 457C600 461 525 437 450 439C375 441 300 469 225 481C150 493 75 489 37.5 487L0 485Z" fill="#e0fbfc"></path><path d="M0 601L37.5 601C75 601 150 601 225 598C300 595 375 589 450 582C525 575 600 567 675 561C750 555 825 551 862.5 549L900 547L900 491L862.5 495C825 499 750 507 675 514C600 521 525 527 450 536C375 545 300 557 225 559C150 561 75 553 37.5 549L0 545Z" fill="#e6fcfd"></path><path d="M0 601L37.5 601C75 601 150 601 225 601C300 601 375 601 450 601C525 601 600 601 675 601C750 601 825 601 862.5 601L900 601L900 545L862.5 547C825 549 750 553 675 559C600 565 525 573 450 580C375 587 300 593 225 596C150 599 75 599 37.5 599L0 599Z" fill="#ebfcfd"></path></svg>