<svg id="visual" viewBox="0 0 900 450" width="900" height="450" xmlns="http://www.w3.org/2000/svg" xmlns:xlink="http://www.w3.org/1999/xlink" version="1.1"><rect x="0" y="0" width="900" height="450" fill="#e0fbfc"></rect><path d="M0 183L13.7 186.7C27.3 190.3 54.7 197.7 82 196C109.3 194.3 136.7 183.7 163.8 177C191 170.3 218 167.7 245.2 167.5C272.3 167.3 299.7 169.7 327 174C354.3 178.3 381.7 184.7 409 185.5C436.3 186.3 463.7 181.7 491 182.2C518.3 182.7 545.7 188.3 573 192.5C600.3 196.7 627.7 199.3 654.8 194.5C682 189.7 709 177.3 736.2 173C763.3 168.7 790.7 172.3 818 171.5C845.3 170.7 872.7 165.3 886.3 162.7L900 160L900 451L886.3 451C872.7 451 845.3 451 818 451C790.7 451 763.3 451 736.2 451C709 451 682 451 654.8 451C627.7 451 600.3 451 573 451C545.7 451 518.3 451 491 451C463.7 451 436.3 451 409 451C381.7 451 354.3 451 327 451C299.7 451 272.3 451 245.2 451C218 451 191 451 163.8 451C136.7 451 109.3 451 82 451C54.7 451 27.3 451 13.7 451L0 451Z" fill="#363f4e"></path><path d="M0 224L13.7 224.3C27.3 224.7 54.7 225.3 82 225.2C109.3 225 136.7 224 163.8 223.7C191 223.3 218 223.7 245.2 221.2C272.3 218.7 299.7 213.3 327 207.3C354.3 201.3 381.7 194.7 409 193.8C436.3 193 463.7 198 491 200.5C518.3 203 545.7 203 573 203C600.3 203 627.7 203 654.8 204.3C682 205.7 709 208.3 736.2 209.3C763.3 210.3 790.7 209.7 818 205.7C845.3 201.7 872.7 194.3 886.3 190.7L900 187L900 451L886.3 451C872.7 451 845.3 451 818 451C790.7 451 763.3 451 736.2 451C709 451 682 451 654.8 451C627.7 451 600.3 451 573 451C545.7 451 518.3 451 491 451C463.7 451 436.3 451 409 451C381.7 451 354.3 451 327 451C299.7 451 272.3 451 245.2 451C218 451 191 451 163.8 451C136.7 451 109.3 451 82 451C54.7 451 27.3 451 13.7 451L0 451Z" fill="#2d3542"></path><path d="M0 258L13.7 257.7C27.3 257.3 54.7 256.7 82 253C109.3 249.3 136.7 242.7 163.8 238.3C191 234 218 232 245.2 232C272.3 232 299.7 234 327 236.7C354.3 239.3 381.7 242.7 409 245C436.3 247.3 463.7 248.7 491 246.2C518.3 243.7 545.7 237.3 573 238C600.3 238.7 627.7 246.3 654.8 244.8C682 243.3 709 232.7 736.2 230.7C763.3 228.7 790.7 235.3 818 238.5C845.3 241.7 872.7 241.3 886.3 241.2L900 241L900 451L886.3 451C872.7 451 845.3 451 818 451C790.7 451 763.3 451 736.2 451C709 451 682 451 654.8 451C627.7 451 600.3 451 573 451C545.7 451 518.3 451 491 451C463.7 451 436.3 451 409 451C381.7 451 354.3 451 327 451C299.7 451 272.3 451 245.2 451C218 451 191 451 163.8 451C136.7 451 109.3 451 82 451C54.7 451 27.3 451 13.7 451L0 451Z" fill="#242b37"></path><path d="M0 287L13.7 288.7C27.3 290.3 54.7 293.7 82 296.7C109.3 299.7 136.7 302.3 163.8 300.5C191 298.7 218 292.3 245.2 289.7C272.3 287 299.7 288 327 290.3C354.3 292.7 381.7 296.3 409 292.2C436.3 288 463.7 276 491 268.8C518.3 261.7 545.7 259.3 573 260.8C600.3 262.3 627.7 267.7 654.8 273C682 278.3 709 283.7 736.2 284C763.3 284.3 790.7 279.7 818 278.2C845.3 276.7 872.7 278.3 886.3 279.2L900 280L900 451L886.3 451C872.7 451 845.3 451 818 451C790.7 451 763.3 451 736.2 451C709 451 682 451 654.8 451C627.7 451 600.3 451 573 451C545.7 451 518.3 451 491 451C463.7 451 436.3 451 409 451C381.7 451 354.3 451 327 451C299.7 451 272.3 451 245.2 451C218 451 191 451 163.8 451C136.7 451 109.3 451 82 451C54.7 451 27.3 451 13.7 451L0 451Z" fill="#1c222b"></path><path d="M0 319L13.7 318.8C27.3 318.7 54.7 318.3 82 318.2C109.3 318 136.7 318 163.8 318.8C191 319.7 218 321.3 245.2 322.8C272.3 324.3 299.7 325.7 327 325.7C354.3 325.7 381.7 324.3 409 324.8C436.3 325.3 463.7 327.7 491 328.8C518.3 330 545.7 330 573 324.3C600.3 318.7 627.7 307.3 654.8 306.7C682 306 709 316 736.2 316.3C763.3 316.7 790.7 307.3 818 304.8C845.3 302.3 872.7 306.7 886.3 308.8L900 311L900 451L886.3 451C872.7 451 845.3 451 818 451C790.7 451 763.3 451 736.2 451C709 451 682 451 654.8 451C627.7 451 600.3 451 573 451C545.7 451 518.3 451 491 451C463.7 451 436.3 451 409 451C381.7 451 354.3 451 327 451C299.7 451 272.3 451 245.2 451C218 451 191 451 163.8 451C136.7 451 109.3 451 82 451C54.7 451 27.3 451 13.7 451L0 451Z" fill="#171c25"></path><path d="M0 329L13.7 329.5C27.3 330 54.7 331 82 335.2C109.3 339.3 136.7 346.7 163.8 351.8C191 357 218 360 245.2 357.8C272.3 355.7 299.7 348.3 327 342.5C354.3 336.7 381.7 332.3 409 336.7C436.3 341 463.7 354 491 355.2C518.3 356.3 545.7 345.7 573 342C600.3 338.3 627.7 341.7 654.8 345.5C682 349.3 709 353.7 736.2 353.7C763.3 353.7 790.7 349.3 818 347.8C845.3 346.3 872.7 347.7 886.3 348.3L900 349L900 451L886.3 451C872.7 451 845.3 451 818 451C790.7 451 763.3 451 736.2 451C709 451 682 451 654.8 451C627.7 451 600.3 451 573 451C545.7 451 518.3 451 491 451C463.7 451 436.3 451 409 451C381.7 451 354.3 451 327 451C299.7 451 272.3 451 245.2 451C218 451 191 451 163.8 451C136.7 451 109.3 451 82 451C54.7 451 27.3 451 13.7 451L0 451Z" fill="#161a23"></path><path d="M0 363L13.7 366.7C27.3 370.3 54.7 377.7 82 378.8C109.3 380 136.7 375 163.8 373C191 371 218 372 245.2 376C272.3 380 299.7 387 327 385.2C354.3 383.3 381.7 372.7 409 367.5C436.3 362.3 463.7 362.7 491 367C518.3 371.3 545.7 379.7 573 383.8C600.3 388 627.7 388 654.8 384C682 380 709 372 736.2 371.2C763.3 370.3 790.7 376.7 818 380.3C845.3 384 872.7 385 886.3 385.5L900 386L900 451L886.3 451C872.7 451 845.3 451 818 451C790.7 451 763.3 451 736.2 451C709 451 682 451 654.8 451C627.7 451 600.3 451 573 451C545.7 451 518.3 451 491 451C463.7 451 436.3 451 409 451C381.7 451 354.3 451 327 451C299.7 451 272.3 451 245.2 451C218 451 191 451 163.8 451C136.7 451 109.3 451 82 451C54.7 451 27.3 451 13.7 451L0 451Z" fill="#151920"></path><path d="M0 408L13.7 407.5C27.3 407 54.7 406 82 403.5C109.3 401 136.7 397 163.8 396.5C191 396 218 399 245.2 402C272.3 405 299.7 408 327 410C354.3 412 381.7 413 409 411C436.3 409 463.7 404 491 401.2C518.3 398.3 545.7 397.7 573 399.2C600.3 400.7 627.7 404.3 654.8 405.3C682 406.3 709 404.7 736.2 408.5C763.3 412.3 790.7 421.7 818 421C845.3 420.3 872.7 409.7 886.3 404.3L900 399L900 451L886.3 451C872.7 451 845.3 451 818 451C790.7 451 763.3 451 736.2 451C709 451 682 451 654.8 451C627.7 451 600.3 451 573 451C545.7 451 518.3 451 491 451C463.7 451 436.3 451 409 451C381.7 451 354.3 451 327 451C299.7 451 272.3 451 245.2 451C218 451 191 451 163.8 451C136.7 451 109.3 451 82 451C54.7 451 27.3 451 13.7 451L0 451Z" fill="#14171e"></path></svg>