<svg id="visual" viewBox="0 0 900 450" width="900" height="450" xmlns="http://www.w3.org/2000/svg" xmlns:xlink="http://www.w3.org/1999/xlink" version="1.1"><rect x="0" y="0" width="900" height="450" fill="#ebfcfd"></rect><path d="M0 177L13.7 176.3C27.3 175.7 54.7 174.3 82 172.2C109.3 170 136.7 167 163.8 172C191 177 218 190 245.2 192.2C272.3 194.3 299.7 185.7 327 178.2C354.3 170.7 381.7 164.3 409 168.8C436.3 173.3 463.7 188.7 491 189.7C518.3 190.7 545.7 177.3 573 172.2C600.3 167 627.7 170 654.8 173.3C682 176.7 709 180.3 736.2 180.2C763.3 180 790.7 176 818 172.3C845.3 168.7 872.7 165.3 886.3 163.7L900 162L900 451L886.3 451C872.7 451 845.3 451 818 451C790.7 451 763.3 451 736.2 451C709 451 682 451 654.8 451C627.7 451 600.3 451 573 451C545.7 451 518.3 451 491 451C463.7 451 436.3 451 409 451C381.7 451 354.3 451 327 451C299.7 451 272.3 451 245.2 451C218 451 191 451 163.8 451C136.7 451 109.3 451 82 451C54.7 451 27.3 451 13.7 451L0 451Z" fill="#363f4e"></path><path d="M0 190L13.7 196.8C27.3 203.7 54.7 217.3 82 218.3C109.3 219.3 136.7 207.7 163.8 201.7C191 195.7 218 195.3 245.2 200.8C272.3 206.3 299.7 217.7 327 221.2C354.3 224.7 381.7 220.3 409 219.5C436.3 218.7 463.7 221.3 491 217.3C518.3 213.3 545.7 202.7 573 198.7C600.3 194.7 627.7 197.3 654.8 201.5C682 205.7 709 211.3 736.2 216C763.3 220.7 790.7 224.3 818 222.7C845.3 221 872.7 214 886.3 210.5L900 207L900 451L886.3 451C872.7 451 845.3 451 818 451C790.7 451 763.3 451 736.2 451C709 451 682 451 654.8 451C627.7 451 600.3 451 573 451C545.7 451 518.3 451 491 451C463.7 451 436.3 451 409 451C381.7 451 354.3 451 327 451C299.7 451 272.3 451 245.2 451C218 451 191 451 163.8 451C136.7 451 109.3 451 82 451C54.7 451 27.3 451 13.7 451L0 451Z" fill="#2d3542"></path><path d="M0 262L13.7 258.5C27.3 255 54.7 248 82 242C109.3 236 136.7 231 163.8 230.5C191 230 218 234 245.2 239.5C272.3 245 299.7 252 327 251.2C354.3 250.3 381.7 241.7 409 240.2C436.3 238.7 463.7 244.3 491 248.8C518.3 253.3 545.7 256.7 573 257.7C600.3 258.7 627.7 257.3 654.8 257.2C682 257 709 258 736.2 258.7C763.3 259.3 790.7 259.7 818 256.8C845.3 254 872.7 248 886.3 245L900 242L900 451L886.3 451C872.7 451 845.3 451 818 451C790.7 451 763.3 451 736.2 451C709 451 682 451 654.8 451C627.7 451 600.3 451 573 451C545.7 451 518.3 451 491 451C463.7 451 436.3 451 409 451C381.7 451 354.3 451 327 451C299.7 451 272.3 451 245.2 451C218 451 191 451 163.8 451C136.7 451 109.3 451 82 451C54.7 451 27.3 451 13.7 451L0 451Z" fill="#242b37"></path><path d="M0 260L13.7 259.8C27.3 259.7 54.7 259.3 82 266.7C109.3 274 136.7 289 163.8 296.5C191 304 218 304 245.2 296.7C272.3 289.3 299.7 274.7 327 271.3C354.3 268 381.7 276 409 281.5C436.3 287 463.7 290 491 288C518.3 286 545.7 279 573 280.3C600.3 281.7 627.7 291.3 654.8 296.2C682 301 709 301 736.2 293.8C763.3 286.7 790.7 272.3 818 265.7C845.3 259 872.7 260 886.3 260.5L900 261L900 451L886.3 451C872.7 451 845.3 451 818 451C790.7 451 763.3 451 736.2 451C709 451 682 451 654.8 451C627.7 451 600.3 451 573 451C545.7 451 518.3 451 491 451C463.7 451 436.3 451 409 451C381.7 451 354.3 451 327 451C299.7 451 272.3 451 245.2 451C218 451 191 451 163.8 451C136.7 451 109.3 451 82 451C54.7 451 27.3 451 13.7 451L0 451Z" fill="#1c222b"></path><path d="M0 291L13.7 298.8C27.3 306.7 54.7 322.3 82 326C109.3 329.7 136.7 321.3 163.8 313.8C191 306.3 218 299.7 245.2 299.5C272.3 299.3 299.7 305.7 327 305.7C354.3 305.7 381.7 299.3 409 296.8C436.3 294.3 463.7 295.7 491 297.5C518.3 299.3 545.7 301.7 573 301.2C600.3 300.7 627.7 297.3 654.8 302.7C682 308 709 322 736.2 327C763.3 332 790.7 328 818 328.2C845.3 328.3 872.7 332.7 886.3 334.8L900 337L900 451L886.3 451C872.7 451 845.3 451 818 451C790.7 451 763.3 451 736.2 451C709 451 682 451 654.8 451C627.7 451 600.3 451 573 451C545.7 451 518.3 451 491 451C463.7 451 436.3 451 409 451C381.7 451 354.3 451 327 451C299.7 451 272.3 451 245.2 451C218 451 191 451 163.8 451C136.7 451 109.3 451 82 451C54.7 451 27.3 451 13.7 451L0 451Z" fill="#171c25"></path><path d="M0 360L13.7 360.3C27.3 360.7 54.7 361.3 82 361.5C109.3 361.7 136.7 361.3 163.8 358.7C191 356 218 351 245.2 349.3C272.3 347.7 299.7 349.3 327 349.5C354.3 349.7 381.7 348.3 409 345C436.3 341.7 463.7 336.3 491 336.2C518.3 336 545.7 341 573 346.5C600.3 352 627.7 358 654.8 361.2C682 364.3 709 364.7 736.2 360C763.3 355.3 790.7 345.7 818 340.3C845.3 335 872.7 334 886.3 333.5L900 333L900 451L886.3 451C872.7 451 845.3 451 818 451C790.7 451 763.3 451 736.2 451C709 451 682 451 654.8 451C627.7 451 600.3 451 573 451C545.7 451 518.3 451 491 451C463.7 451 436.3 451 409 451C381.7 451 354.3 451 327 451C299.7 451 272.3 451 245.2 451C218 451 191 451 163.8 451C136.7 451 109.3 451 82 451C54.7 451 27.3 451 13.7 451L0 451Z" fill="#161a23"></path><path d="M0 401L13.7 400.8C27.3 400.7 54.7 400.3 82 398.7C109.3 397 136.7 394 163.8 392.2C191 390.3 218 389.7 245.2 388.3C272.3 387 299.7 385 327 384.8C354.3 384.7 381.7 386.3 409 386.7C436.3 387 463.7 386 491 387C518.3 388 545.7 391 573 390.3C600.3 389.7 627.7 385.3 654.8 381.8C682 378.3 709 375.7 736.2 375C763.3 374.3 790.7 375.7 818 374.8C845.3 374 872.7 371 886.3 369.5L900 368L900 451L886.3 451C872.7 451 845.3 451 818 451C790.7 451 763.3 451 736.2 451C709 451 682 451 654.8 451C627.7 451 600.3 451 573 451C545.7 451 518.3 451 491 451C463.7 451 436.3 451 409 451C381.7 451 354.3 451 327 451C299.7 451 272.3 451 245.2 451C218 451 191 451 163.8 451C136.7 451 109.3 451 82 451C54.7 451 27.3 451 13.7 451L0 451Z" fill="#151920"></path><path d="M0 411L13.7 409.2C27.3 407.3 54.7 403.7 82 407.7C109.3 411.7 136.7 423.3 163.8 427.5C191 431.7 218 428.3 245.2 426.2C272.3 424 299.7 423 327 421.8C354.3 420.7 381.7 419.3 409 419.2C436.3 419 463.7 420 491 416.8C518.3 413.7 545.7 406.3 573 402C600.3 397.7 627.7 396.3 654.8 398.3C682 400.3 709 405.7 736.2 407.3C763.3 409 790.7 407 818 410.3C845.3 413.7 872.7 422.3 886.3 426.7L900 431L900 451L886.3 451C872.7 451 845.3 451 818 451C790.7 451 763.3 451 736.2 451C709 451 682 451 654.8 451C627.7 451 600.3 451 573 451C545.7 451 518.3 451 491 451C463.7 451 436.3 451 409 451C381.7 451 354.3 451 327 451C299.7 451 272.3 451 245.2 451C218 451 191 451 163.8 451C136.7 451 109.3 451 82 451C54.7 451 27.3 451 13.7 451L0 451Z" fill="#14171e"></path></svg>