<svg id="visual" viewBox="0 0 900 450" width="900" height="450" xmlns="http://www.w3.org/2000/svg" xmlns:xlink="http://www.w3.org/1999/xlink" version="1.1"><path d="M0 28L12.5 25C25 22 50 16 75 16C100 16 125 22 150 22.8C175 23.7 200 19.3 225 17.2C250 15 275 15 300 14.2C325 13.3 350 11.7 375 13.8C400 16 425 22 450 24.3C475 26.7 500 25.3 525 24.7C550 24 575 24 600 23.2C625 22.3 650 20.7 675 20.7C700 20.7 725 22.3 750 24.7C775 27 800 30 825 30C850 30 875 27 887.5 25.5L900 24L900 0L887.5 0C875 0 850 0 825 0C800 0 775 0 750 0C725 0 700 0 675 0C650 0 625 0 600 0C575 0 550 0 525 0C500 0 475 0 450 0C425 0 400 0 375 0C350 0 325 0 300 0C275 0 250 0 225 0C200 0 175 0 150 0C125 0 100 0 75 0C50 0 25 0 12.5 0L0 0Z" fill="#ebfcfd"></path><path d="M0 105L12.5 99.7C25 94.3 50 83.7 75 74.7C100 65.7 125 58.3 150 52.3C175 46.3 200 41.7 225 46.2C250 50.7 275 64.3 300 66.7C325 69 350 60 375 62.2C400 64.3 425 77.7 450 82.8C475 88 500 85 525 80.5C550 76 575 70 600 65.5C625 61 650 58 675 57.3C700 56.7 725 58.3 750 65.2C775 72 800 84 825 85.5C850 87 875 78 887.5 73.5L900 69L900 22L887.5 23.5C875 25 850 28 825 28C800 28 775 25 750 22.7C725 20.3 700 18.7 675 18.7C650 18.7 625 20.3 600 21.2C575 22 550 22 525 22.7C500 23.3 475 24.7 450 22.3C425 20 400 14 375 11.8C350 9.7 325 11.3 300 12.2C275 13 250 13 225 15.2C200 17.3 175 21.7 150 20.8C125 20 100 14 75 14C50 14 25 20 12.5 23L0 26Z" fill="#e6fcfd"></path><path d="M0 136L12.5 131.5C25 127 50 118 75 109C100 100 125 91 150 86.5C175 82 200 82 225 92.5C250 103 275 124 300 127C325 130 350 115 375 115C400 115 425 130 450 132.3C475 134.7 500 124.3 525 118.3C550 112.3 575 110.7 600 105.3C625 100 650 91 675 86.5C700 82 725 82 750 94C775 106 800 130 825 130C850 130 875 106 887.5 94L900 82L900 67L887.5 71.5C875 76 850 85 825 83.5C800 82 775 70 750 63.2C725 56.3 700 54.7 675 55.3C650 56 625 59 600 63.5C575 68 550 74 525 78.5C500 83 475 86 450 80.8C425 75.7 400 62.3 375 60.2C350 58 325 67 300 64.7C275 62.3 250 48.7 225 44.2C200 39.7 175 44.3 150 50.3C125 56.3 100 63.7 75 72.7C50 81.7 25 92.3 12.5 97.7L0 103Z" fill="#e0fbfc"></path><path d="M0 249L12.5 243C25 237 50 225 75 216C100 207 125 201 150 188.2C175 175.3 200 155.7 225 152.7C250 149.7 275 163.3 300 167.2C325 171 350 165 375 178.5C400 192 425 225 450 228C475 231 500 204 525 196.5C550 189 575 201 600 193.5C625 186 650 159 675 153.7C700 148.3 725 164.7 750 172.8C775 181 800 181 825 174.3C850 167.7 875 154.3 887.5 147.7L900 141L900 80L887.5 92C875 104 850 128 825 128C800 128 775 104 750 92C725 80 700 80 675 84.5C650 89 625 98 600 103.3C575 108.7 550 110.3 525 116.3C500 122.3 475 132.7 450 130.3C425 128 400 113 375 113C350 113 325 128 300 125C275 122 250 101 225 90.5C200 80 175 80 150 84.5C125 89 100 98 75 107C50 116 25 125 12.5 129.5L0 134Z" fill="#d3fafb"></path><path d="M0 276L12.5 270C25 264 50 252 75 243C100 234 125 228 150 213.7C175 199.3 200 176.7 225 173.7C250 170.7 275 187.3 300 190.3C325 193.3 350 182.7 375 196.2C400 209.7 425 247.3 450 252.7C475 258 500 231 525 222.7C550 214.3 575 224.7 600 216.3C625 208 650 181 675 178.8C700 176.7 725 199.3 750 208.3C775 217.3 800 212.7 825 205.8C850 199 875 190 887.5 185.5L900 181L900 139L887.5 145.7C875 152.3 850 165.7 825 172.3C800 179 775 179 750 170.8C725 162.7 700 146.3 675 151.7C650 157 625 184 600 191.5C575 199 550 187 525 194.5C500 202 475 229 450 226C425 223 400 190 375 176.5C350 163 325 169 300 165.2C275 161.3 250 147.7 225 150.7C200 153.7 175 173.3 150 186.2C125 199 100 205 75 214C50 223 25 235 12.5 241L0 247Z" fill="#c6f8f9"></path><path d="M0 289L12.5 282.3C25 275.7 50 262.3 75 254.2C100 246 125 243 150 232.5C175 222 200 204 225 201C250 198 275 210 300 210C325 210 350 198 375 212.2C400 226.3 425 266.7 450 274.2C475 281.7 500 256.3 525 245.8C550 235.3 575 239.7 600 230.7C625 221.7 650 199.3 675 197.2C700 195 725 213 750 221.2C775 229.3 800 227.7 825 223.8C850 220 875 214 887.5 211L900 208L900 179L887.5 183.5C875 188 850 197 825 203.8C800 210.7 775 215.3 750 206.3C725 197.3 700 174.7 675 176.8C650 179 625 206 600 214.3C575 222.7 550 212.3 525 220.7C500 229 475 256 450 250.7C425 245.3 400 207.7 375 194.2C350 180.7 325 191.3 300 188.3C275 185.3 250 168.7 225 171.7C200 174.7 175 197.3 150 211.7C125 226 100 232 75 241C50 250 25 262 12.5 268L0 274Z" fill="#c6f8f9"></path><path d="M0 316L12.5 306.3C25 296.7 50 277.3 75 267.7C100 258 125 258 150 249C175 240 200 222 225 221.2C250 220.3 275 236.7 300 235.8C325 235 350 217 375 231.3C400 245.7 425 292.3 450 302.8C475 313.3 500 287.7 525 274.2C550 260.7 575 259.3 600 251.2C625 243 650 228 675 225.7C700 223.3 725 233.7 750 241.8C775 250 800 256 825 254.5C850 253 875 244 887.5 239.5L900 235L900 206L887.5 209C875 212 850 218 825 221.8C800 225.7 775 227.3 750 219.2C725 211 700 193 675 195.2C650 197.3 625 219.7 600 228.7C575 237.7 550 233.3 525 243.8C500 254.3 475 279.7 450 272.2C425 264.7 400 224.3 375 210.2C350 196 325 208 300 208C275 208 250 196 225 199C200 202 175 220 150 230.5C125 241 100 244 75 252.2C50 260.3 25 273.7 12.5 280.3L0 287Z" fill="#c6f8f9"></path><path d="M0 343L12.5 334.8C25 326.7 50 310.3 75 301.3C100 292.3 125 290.7 150 280.2C175 269.7 200 250.3 225 245.8C250 241.3 275 251.7 300 250.2C325 248.7 350 235.3 375 251.8C400 268.3 425 314.7 450 324.3C475 334 500 307 525 295.8C550 284.7 575 289.3 600 284.2C625 279 650 264 675 259.5C700 255 725 261 750 264.7C775 268.3 800 269.7 825 268.8C850 268 875 265 887.5 263.5L900 262L900 233L887.5 237.5C875 242 850 251 825 252.5C800 254 775 248 750 239.8C725 231.7 700 221.3 675 223.7C650 226 625 241 600 249.2C575 257.3 550 258.7 525 272.2C500 285.7 475 311.3 450 300.8C425 290.3 400 243.7 375 229.3C350 215 325 233 300 233.8C275 234.7 250 218.3 225 219.2C200 220 175 238 150 247C125 256 100 256 75 265.7C50 275.3 25 294.7 12.5 304.3L0 314Z" fill="#d3fafb"></path><path d="M0 357L12.5 350.2C25 343.3 50 329.7 75 323.7C100 317.7 125 319.3 150 310.3C175 301.3 200 281.7 225 277.8C250 274 275 286 300 282.3C325 278.7 350 259.3 375 272.8C400 286.3 425 332.7 450 343.8C475 355 500 331 525 323.5C550 316 575 325 600 319.8C625 314.7 650 295.3 675 287.2C700 279 725 282 750 282.7C775 283.3 800 281.7 825 280.2C850 278.7 875 277.3 887.5 276.7L900 276L900 260L887.5 261.5C875 263 850 266 825 266.8C800 267.7 775 266.3 750 262.7C725 259 700 253 675 257.5C650 262 625 277 600 282.2C575 287.3 550 282.7 525 293.8C500 305 475 332 450 322.3C425 312.7 400 266.3 375 249.8C350 233.3 325 246.7 300 248.2C275 249.7 250 239.3 225 243.8C200 248.3 175 267.7 150 278.2C125 288.7 100 290.3 75 299.3C50 308.3 25 324.7 12.5 332.8L0 341Z" fill="#e0fbfc"></path><path d="M0 402L12.5 393.7C25 385.3 50 368.7 75 361.8C100 355 125 358 150 349.8C175 341.7 200 322.3 225 319.3C250 316.3 275 329.7 300 325.2C325 320.7 350 298.3 375 307.3C400 316.3 425 356.7 450 370.2C475 383.7 500 370.3 525 365.8C550 361.3 575 365.7 600 355.8C625 346 650 322 675 313C700 304 725 310 750 315.3C775 320.7 800 325.3 825 325.3C850 325.3 875 320.7 887.5 318.3L900 316L900 274L887.5 274.7C875 275.3 850 276.7 825 278.2C800 279.7 775 281.3 750 280.7C725 280 700 277 675 285.2C650 293.3 625 312.7 600 317.8C575 323 550 314 525 321.5C500 329 475 353 450 341.8C425 330.7 400 284.3 375 270.8C350 257.3 325 276.7 300 280.3C275 284 250 272 225 275.8C200 279.7 175 299.3 150 308.3C125 317.3 100 315.7 75 321.7C50 327.7 25 341.3 12.5 348.2L0 355Z" fill="#e6fcfd"></path><path d="M0 451L12.5 451C25 451 50 451 75 451C100 451 125 451 150 451C175 451 200 451 225 451C250 451 275 451 300 451C325 451 350 451 375 451C400 451 425 451 450 451C475 451 500 451 525 451C550 451 575 451 600 451C625 451 650 451 675 451C700 451 725 451 750 451C775 451 800 451 825 451C850 451 875 451 887.5 451L900 451L900 314L887.5 316.3C875 318.7 850 323.3 825 323.3C800 323.3 775 318.7 750 313.3C725 308 700 302 675 311C650 320 625 344 600 353.8C575 363.7 550 359.3 525 363.8C500 368.3 475 381.7 450 368.2C425 354.7 400 314.3 375 305.3C350 296.3 325 318.7 300 323.2C275 327.7 250 314.3 225 317.3C200 320.3 175 339.7 150 347.8C125 356 100 353 75 359.8C50 366.7 25 383.3 12.5 391.7L0 400Z" fill="#ebfcfd"></path></svg>