<svg id="visual" viewBox="0 0 900 450" width="900" height="450" xmlns="http://www.w3.org/2000/svg" xmlns:xlink="http://www.w3.org/1999/xlink" version="1.1"><rect x="0" y="0" width="900" height="450" fill="#151920"></rect><path d="M0 232L21.5 225.5C43 219 86 206 128.8 192.8C171.7 179.7 214.3 166.3 257.2 178.3C300 190.3 343 227.7 385.8 242.5C428.7 257.3 471.3 249.7 514.2 245.3C557 241 600 240 642.8 239.8C685.7 239.7 728.3 240.3 771.2 225.7C814 211 857 181 878.5 166L900 151L900 451L878.5 451C857 451 814 451 771.2 451C728.3 451 685.7 451 642.8 451C600 451 557 451 514.2 451C471.3 451 428.7 451 385.8 451C343 451 300 451 257.2 451C214.3 451 171.7 451 128.8 451C86 451 43 451 21.5 451L0 451Z" fill="#ee6c4d"></path><path d="M0 261L21.5 263.8C43 266.7 86 272.3 128.8 283.2C171.7 294 214.3 310 257.2 308.5C300 307 343 288 385.8 290.7C428.7 293.3 471.3 317.7 514.2 317.8C557 318 600 294 642.8 299.7C685.7 305.3 728.3 340.7 771.2 356.3C814 372 857 368 878.5 366L900 364L900 451L878.5 451C857 451 814 451 771.2 451C728.3 451 685.7 451 642.8 451C600 451 557 451 514.2 451C471.3 451 428.7 451 385.8 451C343 451 300 451 257.2 451C214.3 451 171.7 451 128.8 451C86 451 43 451 21.5 451L0 451Z" fill="#181d26"></path></svg>